<svg id="Capa_1" data-name="Capa 1" xmlns="http://www.w3.org/2000/svg" viewBox="0 0 474.88 169.83"><defs><style>.cls-1{fill:#fff;}</style></defs><title>logoClaroWhite</title><path class="cls-1" d="M379.69,392.76c-7.38,1.4-12-1-16.6-7.68-9.49-13.91-27.82-18.15-43.21-11.67A37.29,37.29,0,0,0,297.48,413a36.84,36.84,0,0,0,32.46,31.18c15.81,1.7,27.84-4.82,36.13-18.16,1.6-2.58,3-3.83,6.16-3.64a111.21,111.21,0,0,0,14.49,0c4.51-.31,4.83,1.18,3.48,5-14.37,40.92-67.49,52.89-98.14,22a59.41,59.41,0,0,1,42.57-101.32c25.14.2,48.19,17,55.81,40.31,1.19,3.67.51,4.75-3.26,4.38C384.7,392.56,382.18,392.76,379.69,392.76Z" transform="translate(-274.82 -297.06)"/><path class="cls-1" d="M580.06,419.84a46.09,46.09,0,0,1,46.51-46.07c26,0,46.57,20.86,46.45,47.23-.11,25.38-21.2,46-46.87,45.9C600.32,466.76,580,446,580.06,419.84Z" transform="translate(-274.82 -297.06)"/><path class="cls-1" d="M489.07,455.17c-9,9.82-19.67,13.29-32,11.07a23.89,23.89,0,0,1-19.78-20.41c-1.9-13.14,2.69-23.58,12.82-29,7-3.73,14.83-4.64,22.53-6a75.64,75.64,0,0,0,10.7-2.27c6.47-2.11,7.78-7.9,3.17-12.87-7.26-7.82-23.11-4.46-26.08,5.68-.6,2.05-1.31,2.69-3.29,2.66-5-.09-10-.13-15,0-2.55.07-3.35-.55-3.19-3.35.64-11.27,7.47-20.58,18.95-24.41a54,54,0,0,1,33.85-.17c11.62,3.64,18.27,12.74,18.38,25.1.19,20,0,39.94.14,59.91,0,3.26-1.06,4-4,3.74-2.64-.22-5.32,0-8,0C489.5,464.9,489.5,464.9,489.07,455.17Z" transform="translate(-274.82 -297.06)"/><path class="cls-1" d="M547.39,387.92c6.91-8.06,14.65-12.45,24-13.93,4-.62,6.31-.22,5.75,4.85-.52,4.6-.2,9.31-.08,14,.06,2.3-.53,3.17-3.08,3.07-17.39-.71-25.35,10.3-25.58,26.17q-.27,19.21,0,38.43c0,3.33-.59,4.77-4.28,4.5a128.74,128.74,0,0,0-13.47-.05c-2.34.08-3.56-.24-3.54-3.13q.15-41.43,0-82.85c0-2.8,1.06-3.31,3.5-3.22a108.07,108.07,0,0,0,12.47,0c3.63-.28,4.68,1.09,4.29,4.48A76.35,76.35,0,0,0,547.39,387.92Z" transform="translate(-274.82 -297.06)"/><path class="cls-1" d="M423.27,407.69c0,17.66-.11,35.31.09,53,0,3.58-1,4.57-4.43,4.32a96.94,96.94,0,0,0-13,0c-3.09.2-3.93-.76-3.9-3.86.16-15.82.07-31.64.07-47.46,0-19.65.13-39.3-.1-58.95,0-4,1.16-5.12,5-4.82a86.64,86.64,0,0,0,12.48,0c3.11-.2,3.9.78,3.88,3.87C423.19,371.72,423.27,389.71,423.27,407.69Z" transform="translate(-274.82 -297.06)"/><path class="cls-1" d="M714.55,317.43c1,0,14.83,14.21,14.51,14.89a7.23,7.23,0,0,1-1.57,1.9q-22.59,22.62-45.16,45.25c-1.76,1.77-2.8,1.56-4.39-.12-3.54-3.75-7.18-7.41-10.94-10.94-1.7-1.58-1.28-2.47.16-3.9Q690,341.8,712.74,319C713.33,318.41,714,317.91,714.55,317.43Z" transform="translate(-274.82 -297.06)"/><path class="cls-1" d="M637,326.45c0,8.31-.1,16.63.06,24.94,0,2.86-.41,4.29-3.75,4.09-4.64-.27-9.31-.15-14,0-2.64.11-3.4-.87-3.39-3.44q.13-25.69,0-51.38c0-2.9.93-3.73,3.72-3.62,4.65.2,9.32.18,14,0,2.63-.1,3.45.83,3.41,3.43C637,309.16,637,317.8,637,326.45Z" transform="translate(-274.82 -297.06)"/><path class="cls-1" d="M720.09,430.91c-8.31,0-16.63-.14-24.93.07-3.11.08-4-.86-3.87-3.93.25-4.64.2-9.31,0-13.95-.11-2.66.86-3.4,3.42-3.39q25.93.14,51.86,0c2.45,0,3.15.88,3.09,3.2-.13,4.82-.2,9.65,0,14.46.13,2.89-.89,3.65-3.67,3.6C737.38,430.81,728.73,430.91,720.09,430.91Z" transform="translate(-274.82 -297.06)"/><path class="cls-1" d="M651.36,420.57c-.07,13.21-11.17,24.25-24.23,24.11a24.32,24.32,0,1,1,.54-48.64A24.15,24.15,0,0,1,651.36,420.57Z" transform="translate(-274.82 -297.06)"/><path class="cls-1" d="M489.14,422.08a54.92,54.92,0,0,1-.7,11.39c-1.93,11.11-8.34,16.56-19.52,16.43-5.79-.06-9.32-2.52-10.47-7.28-1.39-5.8.73-11.1,5.94-13.34a57.51,57.51,0,0,1,10.5-2.94A102.23,102.23,0,0,0,489.14,422.08Z" transform="translate(-274.82 -297.06)"/></svg>