<svg id="Capa_1" data-name="Capa 1" xmlns="http://www.w3.org/2000/svg" viewBox="0 0 466.06 184.69"><defs><style>.cls-1{fill:#eb3137;}.cls-2{fill:#eb3136;}.cls-3{fill:#ec3238;}.cls-4{fill:#ec3237;}.cls-5{fill:#eb3237;}.cls-6{fill:#eb3337;}.cls-7{fill:#fcfbfb;}.cls-8{fill:#fcfafa;}.cls-9{fill:#fcf9f9;}.cls-10{fill:#fdfbfb;}.cls-11{fill:#fcfcfc;}.cls-12{fill:#fae6e8;}.cls-13{fill:#f9e7e7;}.cls-14{fill:#fadbdb;}.cls-15{fill:#f9e5e4;}.cls-16{fill:#f8d8d7;}.cls-17{fill:#f6f0ef;}.cls-18{fill:#f5f0f0;}.cls-19{fill:#f7f1f1;}.cls-20{fill:#f6f2f2;}.cls-21{fill:#f6f3f3;}.cls-22{fill:#f6f4f4;}.cls-23{fill:#ec353b;}</style></defs><title>logoUmicell</title><path class="cls-1" d="M56.15,286.6c4.77-6.33,9.2-12.15,13.56-18A89.86,89.86,0,0,0,77,256.67c3.64-6.94,4-13.75.75-21.05-8.11-18.12-9.23-36.87-4.54-56.13,8.53-35.08,41.42-60,77.33-58.42,30.44,1.36,57.56,23,67.93,54.22,12.55,37.82-3.91,80.42-38.25,98.07-21.69,11.14-43.79,11.29-65.78.68-3.15-1.51-5.18-1.37-7.9.82C91.83,286.73,75.37,291.61,56.15,286.6Z" transform="translate(-56.15 -121)"/><path class="cls-2" d="M386.63,181.39c.21,7.4-14.74,18.86-21.12,16.19-4.63-1.94-5.07-6.53-5.93-11.17-3.14,2.79-5.91,5.61-9,8-8.89,6.68-14.51,4.48-16.93-6.39-.14-.63-.41-1.23-.73-2.17-2.7,2.32-5.08,4.6-7.71,6.55a35.58,35.58,0,0,1-7.2,4.41c-9.76,4.13-15.51.73-18.36-11-7.07,6.31-13.75,12.8-21.64,17.74s-16.22,9.12-26.11,8.48c-11.15-.72-17.39-7.23-17.2-18.39a30.61,30.61,0,0,1,4-14.81c11.21-19.52,26.5-34.9,46.76-45a26.77,26.77,0,0,1,12-3.13c5.28,0,8.28,2.86,8.81,8.17s-1.41,9.83-4.16,14.09a86.9,86.9,0,0,1-24.86,24.95,31.31,31.31,0,0,1-4.43,2.27,4.62,4.62,0,0,1-5.86-1.28c-1.53-1.77-1-3.76.09-5.57,3.19-5.2,7.69-9.16,12.4-12.88,1.34-1.06,2.17-1.35,1.91,1.17-.15,1.41,1.23.3,1.67-.1,5.88-5.24,11.14-11,14.68-18.12,1-1.94,1.77-4.48-.05-6.08s-4.11-.61-6.14.34c-7.19,3.36-13.13,8.46-18.85,13.81a105.31,105.31,0,0,0-20.72,26.1A27.18,27.18,0,0,0,248,191.32c.14,7.52,4.36,11.72,11.84,11.79,8.74.08,16.05-4,23.18-8.3a110.14,110.14,0,0,0,15.15-11.4,11.2,11.2,0,0,0,3-3.9c4.31-9.4,12.21-14.63,21.51-18.16a3.34,3.34,0,0,1,1-.26c3.21-.18,7.16-1.89,9.06,1.84s-.53,6.69-3.16,9.24c-4.66,4.49-10.53,6.88-16.3,9.47-1.64.74-4.25.58-3.63,3.69.54,2.75,1.91,4.52,4.79,5a11.59,11.59,0,0,0,6.79-1.12c6.91-3.12,12.3-6.74,14.51-15.34,3.14-12.2,10.84-22.38,19.76-31.34a30.17,30.17,0,0,1,6-4.44c3.15-1.87,4.59-.64,4.61,2.88,0,4.84-1.84,9.09-4.05,13.21a83,83,0,0,1-17.66,22.17c-3.12,2.84-3.29,6.13-2.1,9.53s4,5.16,7.5,3.12c5.08-3,9.64-6.06,11.45-12.73,3.83-14.11,11.94-25.9,22.81-35.69,1.91-1.71,4.42-4.33,6.88-2.92,2.8,1.6,1.59,5.27.88,7.8-3.47,12.27-11.54,21.59-20.38,30.29-2.28,2.23-3.79,4.44-3.42,7.82.63,5.63,4.66,7.81,9.42,4.71C380.57,186.19,383.5,183.73,386.63,181.39Z" transform="translate(-56.15 -121)"/><path class="cls-1" d="M522.21,216.06c-.65,32.82-11.91,61.39-34.26,85.54-3.37,3.64-7.14,5.4-12,3-4.1-2.05-5.67-5.36-5.08-9.84.36-2.71,2.24-4.4,3.9-6.24,17.05-18.76,27-40.65,28.51-66.06,1.81-30.76-8.41-57.35-29.34-79.67-6.23-6.65-2.31-15.11,4.08-16.46,3.9-.82,6.85.7,9.37,3.37A128.81,128.81,0,0,1,517,180.59,119.69,119.69,0,0,1,522.21,216.06Z" transform="translate(-56.15 -121)"/><path class="cls-1" d="M487.29,214a91.58,91.58,0,0,1-12.3,47.4c-3.72,6.63-7.57,13.08-13,18.55s-15.36,3.25-17.36-4.56c-.53-2.07-.63-3.64.9-5.45,3.53-4.18,6.95-8.48,10.09-13a71.27,71.27,0,0,0-5.15-89c-1-1.11-2-2.21-2.94-3.39-3.63-4.65-3.34-9.09.79-12.8,4-3.57,9-3.5,12.92.49A89.32,89.32,0,0,1,485,195.49,79.33,79.33,0,0,1,487.29,214Z" transform="translate(-56.15 -121)"/><path class="cls-1" d="M452.91,215.19c-.75,16-6,29.63-17,40.82-3.13,3.17-6.89,4-10.93,1.93a9,9,0,0,1-2.15-15,38.49,38.49,0,0,0-.2-54.33c-4.5-4.54-4.17-9.4-.08-13.16s9.32-3.57,13.66.73C447.13,187.07,451.93,200.54,452.91,215.19Z" transform="translate(-56.15 -121)"/><path class="cls-3" d="M283.25,273.79H268.83c2.45-2.42,2.56-5.2,2.55-8,0-13.65,0-27.3,0-40.95,0-2.6.58-5.48-2.54-7,.48-.46.66-.79.87-.8,10.25-.48,10.25-.47,10.25,9.85v11.43c.53,0,1,.17,1.1,0,2.37-2.65,4.83-5.66,8.83-4s5.22,5.35,5.27,9.43c.09,6.83.13,13.65.2,20.47,0,3.28,0,6.58,2.6,9.55H284.08c3.09-2.76,3-5.91,3-9.07,0-6.66,0-13.32-.06-20,0-1.87-.32-4.13-2.37-4.49s-2.93,1.75-3.9,3.33a7.9,7.9,0,0,0-.8,4.34c0,6.16,0,12.32,0,18.48C280,268.83,279.94,271.35,283.25,273.79Z" transform="translate(-56.15 -121)"/><path class="cls-4" d="M232.31,217c6.32,0,12.65-.22,19,.05,8.61.36,13.64,6.15,13.66,15.21s-4.88,15.23-13.42,15.41c-4.58.09-5.63,1.59-5.27,5.78s0,8.66.13,13c.08,3.33.64,6.44,4.9,7.19H231.45c5-1.24,5.69-4.36,5.65-8.2q-.16-20.25,0-40.49C237.1,221.27,236.5,218.29,232.31,217Z" transform="translate(-56.15 -121)"/><path class="cls-5" d="M344.4,273.81H332.11c4.08-6.09,2.1-12.75,2.09-19.07s1.92-13.21-2.22-20c4,1.21,8.73-2.24,12,3.2a29.35,29.35,0,0,1,2.43-2.27c4.32-3.34,8.68-2.05,10.75,3.09,1.16,2.86,1.1,5.88,1.14,8.86.07,6,0,12,0,18,0,2.83.14,5.59,2.84,8H347.36c3-3.09,2.7-6.78,2.67-10.4-.06-6.49-.12-13-.25-19.48,0-1.53-.4-3.24-2.08-3.62s-2.5,1.29-3.35,2.51a1.28,1.28,0,0,0-.23.43A74.82,74.82,0,0,0,344.4,273.81Z" transform="translate(-56.15 -121)"/><path class="cls-6" d="M301.78,254.2a26.7,26.7,0,0,1,3.45-14.37c4.29-7.48,12.86-8.06,18-1.24,6,7.81,5.82,24.38-.25,32.1-4.76,6.05-13,5.69-17.3-.76C303.1,266,301.84,261.13,301.78,254.2Z" transform="translate(-56.15 -121)"/><path class="cls-6" d="M387.08,262.78a15.43,15.43,0,0,1-4.4,9.6c-4,4.07-10.24,3.3-13.85-1.49-5.92-7.84-5.28-26,1.17-33.41,4.56-5.24,10.76-4.74,14.48,1.15,2.3,3.64,2.68,7.78,3.27,11.89.32,2.27-1,2.41-2.63,2.39-3.16,0-6.31.09-9.46,0-2.2-.09-3.08.72-2.66,2.88.25,1.3.44,2.62.79,3.9.93,3.39,1.92,7,5.8,8S384.64,264.83,387.08,262.78Z" transform="translate(-56.15 -121)"/><path class="cls-7" d="M176.11,226c2.35-2.31,3.17-5.34,4-8.39q4.54-17.26,9.15-34.52c.36-1.35.45-2.89,2.07-4.28,5.32,15.93,7.66,32.45,13.69,47.93H193c2.26-2.49,2.25-10.77-.05-13.19-.76-.81-8.83-1-9.63-.18-2.35,2.25-1.67,10.53,1.05,13.26h-8.32Z" transform="translate(-56.15 -121)"/><path class="cls-8" d="M141.08,206.89c-.71,6.76-3.16,13.09-4.49,19.7l-1.29.21-9.57-35.09-.82.12c0,10,0,20.11,0,30.17,0,2.34,1.65,3.38,4.46,4.75H118.74c4.32-2.07,4.39-5.28,4.37-8.67q-.12-15.21,0-30.42c0-3.09-.17-5.9-4.23-7.46,11.67-.79,11.63-.78,14.16,9.38,1.67,6.72,3.47,13.4,5.23,20.16,1.39-.79.36-3.59,2.92-2.8Z" transform="translate(-56.15 -121)"/><path class="cls-9" d="M176.11,226l0,.63h-17.4c4.46-1.1,4.65-3.58,4.63-6.36-.07-11.33,0-22.66,0-34,0-2.54.15-5.14-3.11-6.18h14.43c-2.52,1.26-3.83,2.58-3.8,5.23.18,12,.16,24,0,36C170.79,225.23,172.7,226.31,176.11,226Z" transform="translate(-56.15 -121)"/><path class="cls-10" d="M145.93,182.6c0-1.69.43-2.82,2.53-2.72,2.9.14,5.81,0,9,.36-3.25,1.29-3.47,3.8-3.46,6.58.07,11,.1,21.91,0,32.87,0,3,.2,5.56,5,7.13H143c3.94-2,4-5.18,4-8.25,0-10.46,0-20.92-.08-31.38C146,185.8,145.25,184.37,145.93,182.6Z" transform="translate(-56.15 -121)"/><path class="cls-11" d="M107,226.78c-7.91,3.08-14-.78-14.84-9.61-1-9.94-.3-19.91-.47-29.87,0-2.78.26-5.67-4.35-7.27h14.78c-2.42,1.12-3.23,2.86-3.2,5.52.14,10.62,0,21.25.11,31.88.06,5.71,2,7.83,6.82,8.33C107,225.28,107.16,225.87,107,226.78Z" transform="translate(-56.15 -121)"/><path class="cls-12" d="M110,221.7q.65-2.91,1.28-5.82a306.62,306.62,0,0,0,.08-30.92c-.28-2.27-2-3.27-4.37-4.69h10.19c-3.22,1.62-4.45,4-3.93,7.17a162,162,0,0,1,0,23.93c0,4,0,8-2.31,11.48C110,222.94,109.46,222.76,110,221.7Z" transform="translate(-56.15 -121)"/><path class="cls-13" d="M145.93,182.6c.35,1.53.7,3.06,1,4.59-2.19,4.32-2.22,9.26-4,13.69-2-.13-1.09-1.45-1-2.44A83.92,83.92,0,0,1,145.93,182.6Z" transform="translate(-56.15 -121)"/><path class="cls-14" d="M111.33,185a121.21,121.21,0,0,1-.08,30.92Z" transform="translate(-56.15 -121)"/><path class="cls-14" d="M113.22,211.37V187.45A118,118,0,0,1,113.22,211.37Z" transform="translate(-56.15 -121)"/><path class="cls-15" d="M141.94,198.44l1,2.44c-.35,2.08-.38,4.27-1.85,6l.12.05C138.78,203.87,141.36,201.24,141.94,198.44Z" transform="translate(-56.15 -121)"/><path class="cls-16" d="M110,221.7l.94,1.15c-.81,1.78-1.85,3.34-3.87,3.93l-1.15-1Z" transform="translate(-56.15 -121)"/><path class="cls-17" d="M344.52,169.54c2.81-7.23,5.77-14.34,11.16-20.11,1-1,2.15-2.86,3.61-2s.28,2.75-.3,4a59.07,59.07,0,0,1-11.49,16.74C346.77,169,346.14,170.24,344.52,169.54Z" transform="translate(-56.15 -121)"/><path class="cls-18" d="M385.67,146.22c.17,7.58-8.77,21-14.56,22.5C374.49,160.47,377.79,152.52,385.67,146.22Z" transform="translate(-56.15 -121)"/><path class="cls-19" d="M310,179.68c2.24-6.72,6.69-10.15,11.89-12.82.91-.47,2.13-1.5,3.07-.18.79,1.1,0,2.22-.63,3.16C320.94,174.53,316.32,177.52,310,179.68Z" transform="translate(-56.15 -121)"/><path class="cls-20" d="M246.32,232.41c0-3.14.1-6.29,0-9.42-.13-3.35,1.42-3.63,4-2.45.15.07.31.13.45.21,4.28,2.74,4.28,7.15,4.33,11.44.05,4.5,0,9.16-4.39,11.94-2.26,1.45-4.5,1.62-4.36-2.3C246.4,238.69,246.31,235.55,246.32,232.41Z" transform="translate(-56.15 -121)"/><path class="cls-21" d="M319,253.71c-.28,4.46-.49,8.92-.86,13.37-.19,2.24-1,4.64-3.56,4.63-2.19,0-3.2-2.13-3.5-4.22-1.29-8.76-.9-17.52.1-26.25.23-2,1.14-4.2,3.54-4.16s3,2.28,3.44,4.25C319.11,245.41,318.67,249.57,319,253.71Z" transform="translate(-56.15 -121)"/><path class="cls-22" d="M380.27,245.19c.57,3.18,0,4.78-3.94,4.87-4.73.1-3.72-2.81-3.37-5.22.43-3,.22-7.66,4-7.46S379.88,242.22,380.27,245.19Z" transform="translate(-56.15 -121)"/><path class="cls-23" d="M183.91,210.93c1.42-5.15,2.67-9.71,3.91-14.26l.91,0a92.14,92.14,0,0,0,2.7,9.94c1.46,3.73.24,4.75-3.34,4.36C187,210.83,185.8,210.93,183.91,210.93Z" transform="translate(-56.15 -121)"/></svg>