<svg id="Capa_1" data-name="Capa 1" xmlns="http://www.w3.org/2000/svg" viewBox="0 0 474 474"><defs><style>.cls-1{fill:#fff;}.cls-2{fill:#ef3829;}</style></defs><title>userClaroRedCircle</title><circle class="cls-1" cx="237" cy="237" r="237"/><path class="cls-2" d="M492.35,669.94c22.16,0,44.32.09,66.48,0,18.39-.1,32.79-11.28,35.73-28.6,1.11-6.58.47-13.63-.37-20.34-7.38-59.21-66-100.14-124-86.82C426.2,544.24,393.92,582,389.9,627c-2.49,27.81,16,43.92,39.48,43.06C450.35,669.33,471.36,669.94,492.35,669.94Zm.8-257.49c-27.65-.61-51.67,22.16-52.29,49.56-.65,29.24,21.78,53.13,50.66,53.93,27.29.75,52-22.15,52.66-48.81C544.94,436.24,523.35,413.11,493.15,412.45Zm55.13,3.16,59.07-59.08-14.63-14.7-59.24,59.22Zm8.66,46.79c.79.35,1.08.59,1.37.59,20.48.06,41,.07,61.42.18,2.69,0,3.44-1.17,3.39-3.62-.09-4.83-.29-9.67.06-14.48.32-4.33-1.46-5.26-5.45-5.22-18.64.17-37.28.07-55.93.09-1.58,0-3.16.18-4.86.29ZM484,329.59c0,20.66,0,40.75.12,60.84,0,.89,1.72,2.51,2.67,2.55,6.59.22,13.19.12,20.07.12V329.59Z" transform="translate(-258 -279)"/></svg>